<?xml version="1.0" encoding="utf-8"?>
<!-- Generator: Adobe Illustrator 16.0.0, SVG Export Plug-In . SVG Version: 6.00 Build 0)  -->
<!DOCTYPE svg PUBLIC "-//W3C//DTD SVG 1.1//EN" "http://www.w3.org/Graphics/SVG/1.1/DTD/svg11.dtd">
<svg version="1.1" id="Layer_1" xmlns="http://www.w3.org/2000/svg" xmlns:xlink="http://www.w3.org/1999/xlink" x="0px" y="0px"
	 width="20px" height="20px" viewBox="0 0 20 20" enable-background="new 0 0 20 20" xml:space="preserve">
<g>
	<path fill="#FFFFFF" d="M14.11,0.801l-2.404-0.004c-2.698,0-4.442,1.79-4.442,4.561v2.102H4.848c-0.209,0-0.378,0.169-0.378,0.378
		v3.046c0,0.209,0.169,0.378,0.378,0.378h2.417v7.687c0,0.209,0.168,0.377,0.376,0.377h3.153c0.208,0,0.378-0.168,0.378-0.377
		v-7.687h2.824c0.208,0,0.377-0.169,0.377-0.378l0.003-3.046c0-0.101-0.042-0.196-0.112-0.267c-0.07-0.072-0.168-0.111-0.268-0.111
		h-2.824V5.677c0-0.856,0.203-1.292,1.319-1.292l1.619-0.001c0.207,0,0.377-0.169,0.377-0.377V1.179
		C14.487,0.97,14.317,0.801,14.11,0.801z"/>
</g>
</svg>
