<?xml version="1.0" encoding="utf-8"?>
<!-- Generator: Adobe Illustrator 16.0.0, SVG Export Plug-In . SVG Version: 6.00 Build 0)  -->
<!DOCTYPE svg PUBLIC "-//W3C//DTD SVG 1.1//EN" "http://www.w3.org/Graphics/SVG/1.1/DTD/svg11.dtd">
<svg version="1.1" id="Layer_1" xmlns="http://www.w3.org/2000/svg" xmlns:xlink="http://www.w3.org/1999/xlink" x="0px" y="0px"
	 width="20px" height="20px" viewBox="0 0 20 20" enable-background="new 0 0 20 20" xml:space="preserve">
<g>
	<path fill="#FFFFFF" d="M18.724,18.729L18.724,18.729l0.005-0.001v-6.402c0-3.132-0.674-5.544-4.336-5.544
		c-1.761,0-2.941,0.966-3.423,1.881h-0.051V7.073H7.446v11.654h3.615v-5.771c0-1.52,0.288-2.989,2.169-2.989
		c1.854,0,1.882,1.734,1.882,3.087v5.674H18.724z"/>
	<path fill="#FFFFFF" d="M1.56,7.074h3.619v11.654H1.56V7.074z"/>
	<path fill="#FFFFFF" d="M3.368,1.272c-1.157,0-2.096,0.939-2.096,2.096s0.939,2.116,2.096,2.116s2.096-0.958,2.096-2.116
		C5.464,2.211,4.525,1.272,3.368,1.272z"/>
</g>
</svg>
