<?xml version="1.0" encoding="utf-8"?>
<!-- Generator: Adobe Illustrator 16.0.0, SVG Export Plug-In . SVG Version: 6.00 Build 0)  -->
<!DOCTYPE svg PUBLIC "-//W3C//DTD SVG 1.1//EN" "http://www.w3.org/Graphics/SVG/1.1/DTD/svg11.dtd">
<svg version="1.1" id="Layer_1" xmlns="http://www.w3.org/2000/svg" xmlns:xlink="http://www.w3.org/1999/xlink" x="0px" y="0px"
	 width="20px" height="20px" viewBox="0 0 20 20" enable-background="new 0 0 20 20" xml:space="preserve">
<path fill="#FFFFFF" d="M14.271,0.688H5.729c-2.78,0-5.042,2.262-5.042,5.042v8.541c0,2.78,2.262,5.042,5.042,5.042h8.541
	c2.78,0,5.042-2.262,5.042-5.042V5.729C19.313,2.949,17.051,0.688,14.271,0.688z M10,15.093c-2.808,0-5.093-2.284-5.093-5.093
	c0-2.808,2.285-5.093,5.093-5.093c2.809,0,5.093,2.285,5.093,5.093C15.093,12.809,12.809,15.093,10,15.093z M15.215,6.108
	c-0.83,0-1.505-0.675-1.505-1.505c0-0.83,0.675-1.505,1.505-1.505c0.829,0,1.504,0.675,1.504,1.505
	C16.719,5.433,16.044,6.108,15.215,6.108z"/>
<path fill="#FFFFFF" d="M10,6c-2.206,0-4,1.794-4,4s1.794,4.001,4,4.001s4.001-1.795,4.001-4.001S12.206,6,10,6z"/>
<path fill="#FFFFFF" d="M15.215,4.19c-0.228,0-0.413,0.186-0.413,0.413s0.186,0.413,0.413,0.413s0.413-0.186,0.413-0.413
	C15.628,4.375,15.442,4.19,15.215,4.19z"/>
</svg>
