<?xml version="1.0" encoding="utf-8"?>
<!-- Generator: Adobe Illustrator 16.0.0, SVG Export Plug-In . SVG Version: 6.00 Build 0)  -->
<!DOCTYPE svg PUBLIC "-//W3C//DTD SVG 1.1//EN" "http://www.w3.org/Graphics/SVG/1.1/DTD/svg11.dtd">
<svg version="1.1" id="Layer_1" xmlns="http://www.w3.org/2000/svg" xmlns:xlink="http://www.w3.org/1999/xlink" x="0px" y="0px"
	 width="80px" height="80px" viewBox="0 0 80 80" enable-background="new 0 0 80 80" xml:space="preserve">
<g id="java_logo" transform="translate(-303 -849)">
	<rect id="Rectangle_3172" x="303" y="849" fill="#FFFFFF" fill-opacity="0" width="80" height="80"/>
	<g id="XMLID_7_" transform="translate(280.848 858.321)">
		<path id="XMLID_8_" fill="#FFFFFF" d="M61.849,11.369c-2.835,1.994-6.048,4.254-7.77,7.993c-2.99,6.523,6.123,13.637,6.508,13.938
			c0.214,0.174,0.529,0.142,0.703-0.072c0.129-0.158,0.148-0.379,0.05-0.558c-0.033-0.064-3.3-6.415-3.181-10.972
			c0.043-1.587,2.264-3.387,4.615-5.293c2.153-1.746,4.595-3.724,6.022-6.039c3.135-5.1-0.349-10.1-0.385-10.155
			c-0.154-0.229-0.465-0.29-0.693-0.136c-0.175,0.117-0.258,0.332-0.207,0.536c0.354,2.324-0.068,4.699-1.199,6.759
			C65.533,8.778,63.826,9.979,61.849,11.369z"/>
		<path id="XMLID_9_" fill="#FFFFFF" d="M73.793,13.616c0.229-0.155,0.289-0.466,0.135-0.694c-0.136-0.2-0.395-0.274-0.615-0.178
			c-0.482,0.183-11.794,4.543-11.794,9.812c-0.031,2.576,0.93,5.065,2.684,6.952c0.394,0.421,0.716,0.904,0.954,1.429
			c0.355,1.168-0.486,3.278-0.842,3.992c-0.128,0.244-0.033,0.547,0.212,0.675c0.168,0.087,0.372,0.073,0.524-0.039
			c0.195-0.135,4.754-3.358,3.937-7.242c-0.312-1.271-0.88-2.464-1.67-3.506c-0.992-1.474-1.708-2.54-0.621-4.507
			C67.972,18.017,73.735,13.66,73.793,13.616z"/>
		<path id="XMLID_10_" fill="#FFFFFF" d="M44.351,35.74c-0.196,0.564-0.097,1.19,0.265,1.666c1.226,1.7,5.57,2.641,12.231,2.641l0,0
			c0.9,0,1.856-0.018,2.832-0.053c10.651-0.381,14.6-3.701,14.764-3.84c0.213-0.176,0.244-0.491,0.068-0.705
			c-0.129-0.154-0.337-0.219-0.529-0.16c-3.751,1.023-10.755,1.388-15.613,1.388c-5.436,0-8.2-0.392-8.882-0.681
			c0.348-0.479,2.493-1.33,5.151-1.854c0.276-0.027,0.478-0.273,0.45-0.55c-0.028-0.276-0.274-0.478-0.55-0.45
			C52.978,33.145,45.164,33.27,44.351,35.74z"/>
		<path id="XMLID_11_" fill="#FFFFFF" d="M79.986,32.324c-1.521,0.061-3.013,0.453-4.368,1.147c-0.246,0.124-0.345,0.425-0.22,0.672
			c0.086,0.172,0.264,0.278,0.457,0.274c0.047,0,4.686,0.037,5.105,2.688c0.373,2.287-4.389,5.992-6.256,7.228
			c-0.232,0.147-0.302,0.457-0.154,0.689c0.094,0.147,0.258,0.235,0.432,0.232c0.035,0,0.07-0.004,0.105-0.012
			c0.442-0.095,10.834-2.384,9.734-8.434C84.153,33.101,81.822,32.324,79.986,32.324z"/>
		<path id="XMLID_12_" fill="#FFFFFF" d="M72.86,43.591c0.035-0.193-0.046-0.389-0.206-0.5l-2.491-1.745
			c-0.121-0.085-0.274-0.112-0.418-0.074c-2.11,0.513-4.253,0.884-6.413,1.112c-1.616,0.174-3.239,0.26-4.864,0.257
			c-3.782,0-6.255-0.444-6.615-0.771c-0.048-0.092-0.033-0.133-0.024-0.155c0.156-0.228,0.381-0.397,0.642-0.484
			c0.266-0.081,0.415-0.361,0.334-0.627c-0.081-0.265-0.361-0.415-0.627-0.334c-2.5,0.601-3.721,1.447-3.632,2.507
			c0.158,1.881,4.512,2.844,8.193,3.101c0.529,0.036,1.1,0.055,1.7,0.055l0,0c4.734-0.18,9.439-0.829,14.045-1.94
			C72.678,43.946,72.826,43.788,72.86,43.591z"/>
		<path id="XMLID_13_" fill="#FFFFFF" d="M54.076,47.626c0.235-0.146,0.307-0.455,0.161-0.689c-0.096-0.153-0.268-0.244-0.449-0.234
			c-0.335,0.009-3.277,0.142-3.483,2.015c-0.065,0.552,0.109,1.104,0.477,1.521c1.057,1.252,3.908,2,8.717,2.274
			c0.569,0.034,1.147,0.051,1.718,0.051c3.567,0.048,7.105-0.632,10.4-2c0.251-0.115,0.361-0.412,0.246-0.663
			c-0.043-0.092-0.111-0.169-0.199-0.221l-3.148-1.922c-0.109-0.066-0.24-0.089-0.365-0.063c-0.02,0-2.02,0.418-5.036,0.828
			c-0.705,0.086-1.415,0.125-2.125,0.117c-2.362,0.043-4.72-0.23-7.009-0.814C53.969,47.745,54.007,47.667,54.076,47.626z"/>
		<path id="XMLID_14_" fill="#FFFFFF" d="M58.367,58.343c14-0.012,21.52-2.5,22.967-4.069c0.384-0.368,0.577-0.893,0.524-1.422
			c-0.116-0.583-0.464-1.093-0.963-1.416c-0.211-0.136-0.489-0.099-0.656,0.089c-0.162,0.188-0.162,0.467,0,0.654
			c0.088,0.114,0.14,0.3-0.119,0.563c-0.579,0.541-6.417,2.181-16.137,2.674c-1.332,0.068-2.728,0.1-4.151,0.1
			c-8.7,0-15.072-1.191-15.908-1.887c0.322-0.463,2.575-1.2,4.971-1.621c0.274-0.043,0.462-0.3,0.42-0.574s-0.3-0.463-0.574-0.42
			l0,0c-0.068,0.009-0.3,0.023-0.562,0.039c-3.953,0.241-8.522,0.779-8.76,2.816c-0.076,0.611,0.125,1.226,0.548,1.675
			c1.068,1.2,4.136,2.794,18.4,2.794V58.343z"/>
		<path id="XMLID_15_" fill="#FFFFFF" d="M84.086,54.715c-0.198-0.093-0.433-0.047-0.58,0.114c-0.021,0.021-2.127,2.224-8.457,3.516
			c-2.422,0.486-6.973,0.732-13.521,0.732s-12.8-0.258-12.865-0.262c-0.273-0.038-0.527,0.153-0.565,0.428
			c-0.038,0.273,0.153,0.526,0.427,0.564c5.116,1.057,10.328,1.576,15.552,1.548c4.159,0.011,8.31-0.335,12.409-1.036
			c7.354-1.289,7.868-4.935,7.887-5.09C84.398,55.014,84.283,54.806,84.086,54.715z"/>
	</g>
</g>
</svg>
