<?xml version="1.0" encoding="utf-8"?>
<!-- Generator: Adobe Illustrator 16.0.0, SVG Export Plug-In . SVG Version: 6.00 Build 0)  -->
<!DOCTYPE svg PUBLIC "-//W3C//DTD SVG 1.1//EN" "http://www.w3.org/Graphics/SVG/1.1/DTD/svg11.dtd">
<svg version="1.1" id="Layer_1" xmlns="http://www.w3.org/2000/svg" xmlns:xlink="http://www.w3.org/1999/xlink" x="0px" y="0px"
	 width="80px" height="80px" viewBox="0 0 80 80" enable-background="new 0 0 80 80" xml:space="preserve">
<g id="react_js" transform="translate(-0.172 0.149)">
	<rect id="Rectangle_3172" x="0.172" y="-0.149" fill="#FFFFFF" fill-opacity="0" width="80" height="80"/>
	<g id="s-react-logo" transform="translate(9.982 13.308)">
		<path id="Path_20774" fill="#FFFFFF" d="M49.366,17.177c-0.635-0.217-1.272-0.417-1.918-0.6c0.107-0.434,0.207-0.87,0.301-1.307
			c1.451-7.043,0.5-12.716-2.736-14.584c-3.105-1.791-8.188,0.076-13.316,4.541c-0.505,0.441-0.999,0.894-1.481,1.36
			c-0.323-0.31-0.652-0.614-0.987-0.911c-5.377-4.774-10.766-6.786-14-4.912c-3.1,1.8-4.022,7.13-2.716,13.8
			c0.13,0.661,0.276,1.318,0.44,1.972c-0.763,0.217-1.5,0.447-2.2,0.693c-6.3,2.2-10.329,5.642-10.329,9.215
			c0,3.69,4.321,7.392,10.887,9.635c0.533,0.182,1.07,0.349,1.61,0.5c-0.176,0.705-0.332,1.412-0.468,2.127
			c-1.245,6.558-0.273,11.766,2.822,13.551c3.2,1.843,8.561-0.051,13.785-4.618c0.413-0.36,0.827-0.743,1.242-1.146
			c0.521,0.506,1.059,0.994,1.608,1.469c5.061,4.354,10.059,6.113,13.149,4.322c3.194-1.85,4.231-7.442,2.884-14.248
			c-0.104-0.521-0.222-1.051-0.357-1.592c0.377-0.111,0.746-0.228,1.107-0.348c6.826-2.261,11.266-5.917,11.266-9.657
			c0-3.585-4.153-7.053-10.586-9.267L49.366,17.177z"/>
		<path id="Path_20775" fill="#404041" d="M47.884,33.687c-0.325,0.108-0.66,0.212-1,0.313c-0.833-2.58-1.841-5.1-3.015-7.543
			c1.131-2.41,2.1-4.893,2.898-7.433c0.607,0.177,1.2,0.362,1.771,0.559c5.51,1.9,8.871,4.7,8.871,6.86
			c0,2.301-3.632,5.291-9.523,7.242L47.884,33.687z M45.439,38.531c0.577,2.58,0.675,5.244,0.286,7.857
			c-0.355,1.911-1.068,3.188-1.949,3.7c-1.876,1.086-5.889-0.326-10.216-4.05c-0.496-0.426-0.996-0.881-1.5-1.364
			c1.806-1.998,3.472-4.115,4.991-6.337c2.713-0.229,5.406-0.645,8.064-1.243c0.12,0.49,0.229,0.972,0.32,1.438L45.439,38.531z
			 M20.71,49.898c-1.833,0.646-3.293,0.665-4.176,0.156c-1.878-1.083-2.659-5.266-1.594-10.873c0.127-0.662,0.272-1.322,0.435-1.977
			c2.645,0.568,5.326,0.955,8.023,1.162c1.563,2.213,3.271,4.322,5.111,6.313c-0.37,0.357-0.748,0.706-1.134,1.045
			C25.428,47.514,23.169,48.928,20.71,49.898z M12.122,33.672c-2.521-0.793-4.875-2.044-6.944-3.689
			c-1.477-1.265-2.222-2.52-2.222-3.539c0-2.167,3.232-4.933,8.623-6.813c0.677-0.235,1.36-0.45,2.049-0.645
			c0.8,2.567,1.769,5.079,2.9,7.519c-1.146,2.475-2.127,5.022-2.938,7.626c-0.493-0.143-0.983-0.295-1.47-0.46L12.122,33.672z
			 M15.001,14.072c-1.12-5.715-0.376-10.024,1.494-11.111c1.992-1.153,6.4,0.491,11.039,4.613c0.296,0.267,0.594,0.542,0.893,0.825
			c-1.828,1.978-3.522,4.074-5.072,6.276c-2.672,0.24-5.326,0.652-7.945,1.235c-0.152-0.608-0.289-1.219-0.409-1.834V14.072z
			 M40.683,20.418c-0.582-1.005-1.187-1.998-1.81-2.978c1.898,0.24,3.72,0.559,5.429,0.949c-0.55,1.74-1.185,3.451-1.906,5.127
			c-0.55-1.044-1.121-2.077-1.713-3.1V20.418z M30.211,10.218c1.237,1.35,2.405,2.762,3.499,4.23c-2.344-0.111-4.688-0.111-7.037,0
			c1.157-1.525,2.342-2.942,3.534-4.228L30.211,10.218z M19.669,20.435c-0.584,1.014-1.144,2.04-1.681,3.079
			c-0.741-1.757-1.374-3.484-1.892-5.152c1.7-0.38,3.51-0.691,5.4-0.927c-0.632,0.985-1.24,1.985-1.825,3H19.669z M21.549,35.635
			c-1.843-0.2-3.674-0.494-5.487-0.882c0.526-1.7,1.173-3.462,1.93-5.257c0.539,1.041,1.101,2.066,1.688,3.082
			C20.28,33.611,20.903,34.631,21.549,35.635L21.549,35.635z M30.281,42.848c-1.206-1.3-2.409-2.74-3.583-4.287
			c1.14,0.045,2.301,0.067,3.483,0.067c1.214,0,2.411-0.026,3.594-0.08C32.684,40.039,31.518,41.475,30.281,42.848z M42.42,29.4
			c0.756,1.711,1.424,3.459,2,5.237c-1.834,0.412-3.688,0.729-5.555,0.947c0.629-1,1.237-2.011,1.827-3.03
			C41.294,31.516,41.87,30.465,42.42,29.4L42.42,29.4z M38.491,31.285c-0.902,1.565-1.854,3.103-2.855,4.607
			c-1.768,0.126-3.594,0.191-5.452,0.191c-1.86,0-3.655-0.059-5.391-0.172c-1.028-1.5-1.998-3.038-2.91-4.614
			c-0.912-1.576-1.758-3.177-2.54-4.8c0.784-1.631,1.628-3.231,2.532-4.8l0,0c0.904-1.568,1.866-3.101,2.887-4.6
			c1.771-0.134,3.586-0.2,5.421-0.2s3.661,0.071,5.432,0.206c1.012,1.496,1.969,3.024,2.869,4.587
			c0.901,1.563,1.758,3.155,2.567,4.777C40.254,28.104,39.402,29.71,38.491,31.285L38.491,31.285z M43.737,2.885
			c1.994,1.15,2.77,5.787,1.516,11.867c-0.082,0.396-0.17,0.791-0.268,1.184c-2.623-0.594-5.281-1.015-7.961-1.258
			c-1.535-2.205-3.216-4.303-5.033-6.281c0.446-0.43,0.902-0.849,1.369-1.256C37.76,3.316,41.86,1.805,43.737,2.885L43.737,2.885z
			 M34.875,26.495c0,2.592-2.102,4.692-4.693,4.692c-2.591,0-4.692-2.101-4.692-4.692c0-2.592,2.101-4.693,4.692-4.693
			C32.773,21.802,34.875,23.903,34.875,26.495z"/>
		<path id="Path_20776" fill="#FFFFFF" d="M30.181,21.128c2.937,0,5.317,2.38,5.317,5.317c0,2.936-2.381,5.316-5.317,5.316
			c-2.936,0-5.317-2.381-5.317-5.316C24.864,23.509,27.245,21.128,30.181,21.128L30.181,21.128"/>
	</g>
</g>
</svg>
