<?xml version="1.0" encoding="utf-8"?>
<!-- Generator: Adobe Illustrator 16.0.0, SVG Export Plug-In . SVG Version: 6.00 Build 0)  -->
<!DOCTYPE svg PUBLIC "-//W3C//DTD SVG 1.1//EN" "http://www.w3.org/Graphics/SVG/1.1/DTD/svg11.dtd">
<svg version="1.1" id="Layer_1" xmlns="http://www.w3.org/2000/svg" xmlns:xlink="http://www.w3.org/1999/xlink" x="0px" y="0px"
	 width="20px" height="20px" viewBox="0 0 20 20" enable-background="new 0 0 20 20" xml:space="preserve">
<path fill="#FFFFFF" d="M19.494,4.112c-0.706,0.31-1.459,0.515-2.243,0.615c0.808-0.482,1.424-1.239,1.713-2.152
	c-0.753,0.448-1.583,0.766-2.468,0.942c-0.715-0.761-1.733-1.231-2.845-1.231c-2.154,0-3.89,1.749-3.89,3.894
	c0,0.309,0.026,0.605,0.09,0.888c-3.236-0.158-6.1-1.709-8.024-4.072c-0.336,0.583-0.533,1.25-0.533,1.967
	c0,1.349,0.695,2.543,1.729,3.236C2.398,8.187,1.786,8.005,1.265,7.719c0,0.012,0,0.027,0,0.042c0,1.892,1.35,3.463,3.119,3.825
	c-0.317,0.087-0.662,0.129-1.021,0.129c-0.249,0-0.501-0.016-0.737-0.067c0.505,1.541,1.936,2.675,3.638,2.711
	c-1.325,1.037-3.006,1.661-4.827,1.661c-0.319,0-0.625-0.015-0.932-0.053c1.725,1.111,3.768,1.746,5.972,1.746
	c7.163,0,11.08-5.934,11.08-11.077c0-0.172-0.007-0.338-0.015-0.503C18.315,5.585,18.965,4.901,19.494,4.112z"/>
</svg>
