<?xml version="1.0" encoding="utf-8"?>
<!-- Generator: Adobe Illustrator 16.0.0, SVG Export Plug-In . SVG Version: 6.00 Build 0)  -->
<!DOCTYPE svg PUBLIC "-//W3C//DTD SVG 1.1//EN" "http://www.w3.org/Graphics/SVG/1.1/DTD/svg11.dtd">
<svg version="1.1" id="Layer_1" xmlns="http://www.w3.org/2000/svg" xmlns:xlink="http://www.w3.org/1999/xlink" x="0px" y="0px"
	 width="20px" height="20px" viewBox="0 0 20 20" enable-background="new 0 0 20 20" xml:space="preserve">
<g>
	<g>
		<path fill="#FFFFFF" d="M18.692,5.311c-0.516-0.917-1.074-1.085-2.214-1.149c-1.138-0.077-3.998-0.109-6.476-0.109
			c-2.484,0-5.345,0.032-6.482,0.108C2.385,4.225,1.824,4.393,1.304,5.311C0.773,6.226,0.5,7.803,0.5,10.579
			c0,0.003,0,0.004,0,0.004c0,0.003,0,0.004,0,0.004v0.002c0,2.765,0.273,4.354,0.804,5.26c0.521,0.916,1.08,1.083,2.216,1.16
			c1.138,0.066,4,0.105,6.483,0.105c2.478,0,5.338-0.039,6.478-0.104c1.139-0.077,1.698-0.243,2.213-1.16
			c0.536-0.906,0.807-2.495,0.807-5.26c0,0,0-0.003,0-0.006c0,0,0-0.002,0-0.004C19.5,7.803,19.229,6.226,18.692,5.311z
			 M7.625,14.146V7.021l5.938,3.563L7.625,14.146z"/>
	</g>
</g>
</svg>
